<svg width="1530" height="223" viewBox="0 0 1530 223" fill="none" xmlns="http://www.w3.org/2000/svg">
<path d="M43.6875 114.188L43.1875 126.938C43.1875 129.229 43.7292 132.625 44.8125 137.125C45.9375 141.583 46.5 144.875 46.5 147C46.5 149.167 46.8542 152.188 47.5625 156.062C48.2708 159.938 48.625 163.042 48.625 165.375C48.625 167.75 47.6042 168.938 45.5625 168.938C43.5625 168.938 42.5625 167.771 42.5625 165.438C42.5625 163.146 42.9167 160.062 43.625 156.188C44.375 152.354 44.75 149.479 44.75 147.562C44.75 145.646 44.0833 143.896 42.75 142.312C41.4167 140.771 39.8333 140 38 140C33.8333 140 31.75 145.062 31.75 155.188C31.75 157.562 32.0625 161.125 32.6875 165.875C33.3125 170.625 33.625 173.875 33.625 175.625C33.625 179.042 32.6042 180.75 30.5625 180.75C29.5208 180.75 28.7083 180.292 28.125 179.375C27.5833 178.5 27.3125 177.229 27.3125 175.562C27.3125 173.896 27.6667 170.854 28.375 166.438C29.125 162.021 29.5 158.812 29.5 156.812C29.5 154.812 29.375 152.917 29.125 151.125C28.9167 149.375 28.5 147.479 27.875 145.438C27.2917 143.438 26.3333 141.812 25 140.562C23.7083 139.312 22.0208 138.688 19.9375 138.688C17.8958 138.688 16.0417 139.583 14.375 141.375C12.75 143.167 11.9375 144.854 11.9375 146.438C11.9375 148.062 12.2292 149.75 12.8125 151.5C13.3958 153.25 13.6875 154.604 13.6875 155.562C13.6875 157.396 13 158.312 11.625 158.312C10.2917 158.312 9.625 157.396 9.625 155.562L11.125 145.562L11.0625 66C11.0625 61.0833 9.5625 56.9792 6.5625 53.6875L7.8125 52.4375C11.1458 55.3958 15.25 56.875 20.125 56.875H92.25C97.125 56.875 101.229 55.3958 104.562 52.4375L105.812 53.6875C102.854 57.0208 101.375 60.7708 101.375 64.9375C101.375 69.1042 101.646 72.3333 102.188 74.625C102.729 76.9167 103.938 79.125 105.812 81.25L104.562 82.5C102.354 79.5417 99.6042 78.0625 96.3125 78.0625H48.875C46.5417 78.0625 44.5417 77.2708 42.875 75.6875L41.6875 76.875C43.2708 78.5417 44.0625 80.5625 44.0625 82.9375C44.0625 85.3125 43.2708 87.3333 41.6875 89L42.875 90.1875C44.25 88.8542 45.8958 88 47.8125 87.625C49.7708 87.25 52.0833 87.0625 54.75 87.0625L78.5 88.375C82.375 88.375 85.7917 88.0417 88.75 87.375C91.75 86.7083 94.3125 85.3542 96.4375 83.3125L97.6875 84.5625C94.5625 87.9792 93 92.7083 93 98.75C93 104.792 94.4375 109.312 97.3125 112.312L96 113.562C92.2083 110.188 86.0833 108.5 77.625 108.5L54.25 109.812C48.5417 109.812 44.6458 108.771 42.5625 106.688L41.375 107.938C42.9167 109.521 43.6875 111.604 43.6875 114.188ZM115.438 144L115.625 153.938C115.625 155.938 115.312 157.438 114.688 158.438C114.062 159.479 113.312 160 112.438 160C110.688 160 109.812 158.312 109.812 154.938C109.812 151.562 110.229 147.812 111.062 143.688C111.896 139.604 112.625 136.792 113.25 135.25L143.25 61.4375C143.667 60.3542 143.875 59.2917 143.875 58.25C143.875 57.2083 143.521 56.1875 142.812 55.1875L144.562 54.0625C145.771 55.8542 147.646 56.75 150.188 56.75H178.938C181.438 56.75 183.292 55.8542 184.5 54.0625L186.312 55.1875C185.604 56.1875 185.25 57.1458 185.25 58.0625C185.25 58.9792 185.5 60.0833 186 61.375L216.875 135.312C217.833 137.646 219.312 139.479 221.312 140.812L220.562 142C218.521 140.667 216.25 140 213.75 140H201.5C201.583 140.917 201.625 141.562 201.625 141.938C201.625 143.312 201.062 144 199.938 144C199.438 144 198.979 143.792 198.562 143.375C198.188 143 198 142.438 198 141.688C198 140.979 198.042 140.417 198.125 140H190.562C188.729 140 187.542 141 187 143C186.333 145.458 186 148.271 186 151.438C186 154.646 186.208 157.562 186.625 160.188C187.042 162.812 187.25 164.604 187.25 165.562C187.25 166.562 187 167.354 186.5 167.938C186.042 168.562 185.458 168.875 184.75 168.875C184.042 168.875 183.438 168.583 182.938 168C182.438 167.417 182.188 166.604 182.188 165.562C182.188 164.521 182.438 162.5 182.938 159.5C183.479 156.5 183.75 154.25 183.75 152.75V135.188C183.333 134.062 183.125 133.021 183.125 132.062C183.125 131.104 183.5 130.083 184.25 129L182.625 127.812C181.375 129.604 179.5 130.5 177 130.5H151.312C148.812 130.5 146.938 129.625 145.688 127.875L144.062 129C144.854 130.125 145.25 131.167 145.25 132.125C145.25 133.083 145.104 134.104 144.812 135.188V135.25C144.438 136.667 144.25 137.75 144.25 138.5C144.25 139.25 144.667 140.229 145.5 141.438L143.875 142.625C142.625 140.875 140.75 140 138.25 140H115.625C115.5 140.792 115.438 142.125 115.438 144ZM157.75 113.188H169.688C172.188 113.188 174.438 113.854 176.438 115.188L177.25 114C175.292 112.667 173.875 110.812 173 108.438L165.062 88.125C164.146 85.75 163.667 83.3333 163.625 80.875H162.812C162.729 83.625 162.312 86.0417 161.562 88.125L154.375 108.375C153.5 110.792 152.104 112.667 150.188 114L151 115.25C152.958 113.875 155.208 113.188 157.75 113.188ZM198.312 160.688C198.312 157.812 198.854 154.208 199.938 149.875C201.146 154.875 201.75 158.125 201.75 159.625C201.75 161.833 201.167 162.938 200 162.938C198.875 162.938 198.312 162.188 198.312 160.688ZM254.438 159.375L255.938 142.438C255.938 141.104 255.188 140 253.688 139.125C251.229 137.75 248.229 137.062 244.688 137.062C239.938 137.062 236.667 138 234.875 139.875C234.083 140.708 233.688 141.917 233.688 143.5C233.688 145.125 234.167 147.938 235.125 151.938C236.083 155.938 236.562 158.75 236.562 160.375C236.562 162.042 236.25 163.354 235.625 164.312C235.042 165.312 234.167 165.812 233 165.812C231.833 165.812 230.938 165.312 230.312 164.312C229.688 163.354 229.375 162.042 229.375 160.375C229.375 158.708 229.875 155.833 230.875 151.75C231.917 147.667 232.438 144.583 232.438 142.5L232.375 65.875C232.375 60.9583 230.875 56.8542 227.875 53.5625L229.188 52.25C232.562 55.25 236.667 56.75 241.5 56.75H260.188C262.854 56.75 265.104 56.4375 266.938 55.8125C268.812 55.1458 270.312 53.8542 271.438 51.9375L273.5 52.9375C272.417 55.5208 271.875 57.9583 271.875 60.25C271.875 62.125 275.167 66.8333 281.75 74.375C290.333 84.2083 295.854 90.8125 298.312 94.1875C300.771 97.5625 302.375 100.292 303.125 102.375H306.875C304.833 99.375 303.812 95.1458 303.812 89.6875C303.812 87.1458 304.125 83.3542 304.75 78.3125C305.375 73.2292 305.688 69.4167 305.688 66.875C305.688 60.0417 303.521 55.6042 299.188 53.5625L300.5 52.25C303.875 55.25 307.979 56.75 312.812 56.75H325.625C330.458 56.75 334.562 55.25 337.938 52.25L339.188 53.5625C336.229 56.8958 334.75 61 334.75 65.875L334.625 142.188C334.625 143.979 335.042 146.646 335.875 150.188C336.708 153.771 337.125 156.458 337.125 158.25C337.125 160.917 336.104 162.25 334.062 162.25C332.021 162.25 331 160.917 331 158.25C331 156.5 331.396 153.917 332.188 150.5C332.979 147.125 333.375 144.792 333.375 143.5C333.375 142.25 332.958 141.354 332.125 140.812C331.292 140.271 330.479 140 329.688 140H305C301.5 140 299.75 143.188 299.75 149.562C299.75 152.188 300.229 155.979 301.188 160.938C302.188 165.938 302.688 169.708 302.688 172.25C302.688 175.875 301.333 177.688 298.625 177.688C295.917 177.688 294.562 175.854 294.562 172.188C294.562 169.854 295.083 166.458 296.125 162C297.208 157.542 297.771 154.188 297.812 151.938L297.938 143.625C298.062 139.75 297.667 137.229 296.75 136.062L266.812 98.125C266.021 97.0833 265.146 94.9167 264.188 91.625L260.375 91.75C262.542 94 263.625 96.5 263.625 99.25V134.938L264.812 166.562C264.812 167.229 264.604 167.792 264.188 168.25C263.812 168.75 263.271 169 262.562 169C261.896 169 261.333 168.708 260.875 168.125C260.417 167.583 260.188 166.958 260.188 166.25L260.938 142.25C260.938 141.75 260.75 141.292 260.375 140.875C260 140.458 259.562 140.25 259.062 140.25C257.979 140.25 257.438 141.083 257.438 142.75C257.438 144.417 257.708 147.146 258.25 150.938C258.833 154.729 259.125 157.333 259.125 158.75C259.125 161.917 258.333 163.5 256.75 163.5C255.208 163.5 254.438 162.125 254.438 159.375ZM389.812 171.188L391 141.5C378.292 139.708 368.5 135.125 361.625 127.75C354.792 120.375 351.375 110.312 351.375 97.5625C351.375 83.9792 355.833 73.5417 364.75 66.25C374.583 58.125 389.188 54.0625 408.562 54.0625C439.604 54.0625 456.958 62.9792 460.625 80.8125C461.125 83.3958 462.229 85.375 463.938 86.75L462.875 88.125C460.875 86.625 458.708 85.9792 456.375 86.1875L432.312 87.6875C429.521 87.8958 427.708 88.9167 426.875 90.75L424.812 89.75C425.229 88.8333 425.438 88.0417 425.438 87.375C425.438 85.2083 424.708 83.3333 423.25 81.75C421.833 80.125 420.021 78.9167 417.812 78.125C413.521 76.5833 409.354 75.8125 405.312 75.8125C399.146 75.8125 394.333 77.9167 390.875 82.125C387.458 86.2917 385.75 91.7292 385.75 98.4375C385.75 105.104 387.688 110.562 391.562 114.812C395.479 119.021 400.958 121.125 408 121.125C410.25 121.125 412.75 120.583 415.5 119.5C418.292 118.375 420.75 116.771 422.875 114.688C425.042 112.604 426.125 110.396 426.125 108.062C426.125 107.396 425.896 106.562 425.438 105.562L427.5 104.5C428.5 106.375 430.104 107.396 432.312 107.562C434.562 107.729 437.458 107.958 441 108.25C448.792 108.958 454.208 109.312 457.25 109.312C460.292 109.312 462.688 108.667 464.438 107.375L465.438 108.688C463.896 109.854 462.729 112.021 461.938 115.188C461.188 118.312 459.708 121.333 457.5 124.25C455.292 127.125 452.792 129.521 450 131.438C447.25 133.312 444.042 134.958 440.375 136.375C434.083 138.875 427.188 140.646 419.688 141.688C419.688 145.521 420.188 151.208 421.188 158.75C422.188 166.292 422.688 171.312 422.688 173.812C422.688 176.312 422.375 178.062 421.75 179.062C421.167 180.062 420.292 180.562 419.125 180.562C417.958 180.562 417.062 180.062 416.438 179.062C415.812 178.062 415.5 176.458 415.5 174.25C415.5 172.083 415.833 167.854 416.5 161.562C417.208 155.271 417.562 151.062 417.562 148.938C417.562 146.812 417.458 145.375 417.25 144.625C417.042 143.875 416.792 143.292 416.5 142.875C416.208 142.5 415.708 142.208 415 142C413.375 141.583 411.417 141.479 409.125 141.688C404.542 142.062 402.25 142.833 402.25 144L403.75 161C403.75 163.708 402.958 165.062 401.375 165.062C399.792 165.062 399 163.917 399 161.625C399 159.333 399.271 156.292 399.812 152.5C400.396 148.708 400.688 145.979 400.688 144.312C400.688 142.688 400.146 141.875 399.062 141.875C396.938 141.875 395.5 142.104 394.75 142.562C394.042 143.021 393.688 143.438 393.688 143.812L394.375 170.875C394.375 171.583 394.146 172.208 393.688 172.75C393.229 173.333 392.667 173.625 392 173.625C391.333 173.625 390.792 173.375 390.375 172.875C390 172.417 389.812 171.854 389.812 171.188ZM513.5 162.125L514.188 149.875C514.188 142.875 513.312 139.375 511.562 139.375C509.812 139.375 508.938 141.583 508.938 146V147.812C508.938 149.604 509.333 152.271 510.125 155.812C510.958 159.354 511.375 162.042 511.375 163.875C511.375 166.708 510.312 168.125 508.188 168.125C506.104 168.125 505.062 166.708 505.062 163.875C505.062 161.958 505.5 159.167 506.375 155.5C507.25 151.833 507.688 149.042 507.688 147.125L507.562 121.625C507.562 120.333 507.729 119.333 508.062 118.625C508.438 117.917 509.188 117.396 510.312 117.062L509.688 114.688C509.104 114.854 508.583 114.938 508.125 114.938C507.708 114.938 507.271 114.792 506.812 114.5C506.271 114.125 505.646 113.375 504.938 112.25L473.25 60.625C472 58.5833 470.292 56.9167 468.125 55.625L468.688 54.5625C470.771 55.7292 473.125 56.3125 475.75 56.3125L500.938 56.1875C503.438 56.1875 505.208 55.2917 506.25 53.5L508.188 54.5625C507.646 55.5625 507.375 56.6667 507.375 57.875C507.375 59.0417 508.208 61.0625 509.875 63.9375C511.583 66.8125 513.438 69.6042 515.438 72.3125C517.479 75.0208 519.333 78.0208 521 81.3125C522.708 84.6042 523.562 87.4583 523.562 89.875H524.875V89.375C524.875 85.4583 527.583 79.75 533 72.25C538.417 64.75 541.125 59.7292 541.125 57.1875C541.125 56.5208 540.833 55.6458 540.25 54.5625L542.188 53.5C543.229 55.2917 545.021 56.1875 547.562 56.1875L571.25 56.3125C573.833 56.3125 576.167 55.7292 578.25 54.5625L578.812 55.625C576.562 56.9583 574.833 58.625 573.625 60.625L541.625 112.25C540.542 114.042 539.438 114.938 538.312 114.938C537.854 114.938 537.375 114.854 536.875 114.688L536.125 117C538.125 117.625 539.125 119.708 539.125 123.25L538.75 131.938C538.75 135.938 539.625 138.812 541.375 140.562L540.062 141.812C538.438 140.188 536.375 139.375 533.875 139.375H519.25C516.583 139.375 515.25 143.146 515.25 150.688L516.188 162.312C516.188 163.771 515.729 164.5 514.812 164.5C513.938 164.5 513.5 163.708 513.5 162.125ZM655.312 114.188L654.812 126.938C654.812 129.229 655.354 132.625 656.438 137.125C657.562 141.583 658.125 144.875 658.125 147C658.125 149.167 658.479 152.188 659.188 156.062C659.896 159.938 660.25 163.042 660.25 165.375C660.25 167.75 659.229 168.938 657.188 168.938C655.188 168.938 654.188 167.771 654.188 165.438C654.188 163.146 654.542 160.062 655.25 156.188C656 152.354 656.375 149.479 656.375 147.562C656.375 145.646 655.708 143.896 654.375 142.312C653.042 140.771 651.458 140 649.625 140C645.458 140 643.375 145.062 643.375 155.188C643.375 157.562 643.688 161.125 644.312 165.875C644.938 170.625 645.25 173.875 645.25 175.625C645.25 179.042 644.229 180.75 642.188 180.75C641.146 180.75 640.333 180.292 639.75 179.375C639.208 178.5 638.938 177.229 638.938 175.562C638.938 173.896 639.292 170.854 640 166.438C640.75 162.021 641.125 158.812 641.125 156.812C641.125 154.812 641 152.917 640.75 151.125C640.542 149.375 640.125 147.479 639.5 145.438C638.917 143.438 637.958 141.812 636.625 140.562C635.333 139.312 633.646 138.688 631.562 138.688C629.521 138.688 627.667 139.583 626 141.375C624.375 143.167 623.562 144.854 623.562 146.438C623.562 148.062 623.854 149.75 624.438 151.5C625.021 153.25 625.312 154.604 625.312 155.562C625.312 157.396 624.625 158.312 623.25 158.312C621.917 158.312 621.25 157.396 621.25 155.562L622.75 145.562L622.688 66C622.688 61.0833 621.188 56.9792 618.188 53.6875L619.438 52.4375C622.771 55.3958 626.875 56.875 631.75 56.875H703.875C708.75 56.875 712.854 55.3958 716.188 52.4375L717.438 53.6875C714.479 57.0208 713 60.7708 713 64.9375C713 69.1042 713.271 72.3333 713.812 74.625C714.354 76.9167 715.562 79.125 717.438 81.25L716.188 82.5C713.979 79.5417 711.229 78.0625 707.938 78.0625H660.5C658.167 78.0625 656.167 77.2708 654.5 75.6875L653.312 76.875C654.896 78.5417 655.688 80.5625 655.688 82.9375C655.688 85.3125 654.896 87.3333 653.312 89L654.5 90.1875C655.875 88.8542 657.521 88 659.438 87.625C661.396 87.25 663.708 87.0625 666.375 87.0625L690.125 88.375C694 88.375 697.417 88.0417 700.375 87.375C703.375 86.7083 705.938 85.3542 708.062 83.3125L709.312 84.5625C706.188 87.9792 704.625 92.7083 704.625 98.75C704.625 104.792 706.062 109.312 708.938 112.312L707.625 113.562C703.833 110.188 697.708 108.5 689.25 108.5L665.875 109.812C660.167 109.812 656.271 108.771 654.188 106.688L653 107.938C654.542 109.521 655.312 111.604 655.312 114.188ZM727.062 144L727.25 153.938C727.25 155.938 726.938 157.438 726.312 158.438C725.688 159.479 724.938 160 724.062 160C722.312 160 721.438 158.312 721.438 154.938C721.438 151.562 721.854 147.812 722.688 143.688C723.521 139.604 724.25 136.792 724.875 135.25L754.875 61.4375C755.292 60.3542 755.5 59.2917 755.5 58.25C755.5 57.2083 755.146 56.1875 754.438 55.1875L756.188 54.0625C757.396 55.8542 759.271 56.75 761.812 56.75H790.562C793.062 56.75 794.917 55.8542 796.125 54.0625L797.938 55.1875C797.229 56.1875 796.875 57.1458 796.875 58.0625C796.875 58.9792 797.125 60.0833 797.625 61.375L828.5 135.312C829.458 137.646 830.938 139.479 832.938 140.812L832.188 142C830.146 140.667 827.875 140 825.375 140H813.125C813.208 140.917 813.25 141.562 813.25 141.938C813.25 143.312 812.688 144 811.562 144C811.062 144 810.604 143.792 810.188 143.375C809.812 143 809.625 142.438 809.625 141.688C809.625 140.979 809.667 140.417 809.75 140H802.188C800.354 140 799.167 141 798.625 143C797.958 145.458 797.625 148.271 797.625 151.438C797.625 154.646 797.833 157.562 798.25 160.188C798.667 162.812 798.875 164.604 798.875 165.562C798.875 166.562 798.625 167.354 798.125 167.938C797.667 168.562 797.083 168.875 796.375 168.875C795.667 168.875 795.062 168.583 794.562 168C794.062 167.417 793.812 166.604 793.812 165.562C793.812 164.521 794.062 162.5 794.562 159.5C795.104 156.5 795.375 154.25 795.375 152.75V135.188C794.958 134.062 794.75 133.021 794.75 132.062C794.75 131.104 795.125 130.083 795.875 129L794.25 127.812C793 129.604 791.125 130.5 788.625 130.5H762.938C760.438 130.5 758.562 129.625 757.312 127.875L755.688 129C756.479 130.125 756.875 131.167 756.875 132.125C756.875 133.083 756.729 134.104 756.438 135.188V135.25C756.062 136.667 755.875 137.75 755.875 138.5C755.875 139.25 756.292 140.229 757.125 141.438L755.5 142.625C754.25 140.875 752.375 140 749.875 140H727.25C727.125 140.792 727.062 142.125 727.062 144ZM769.375 113.188H781.312C783.812 113.188 786.062 113.854 788.062 115.188L788.875 114C786.917 112.667 785.5 110.812 784.625 108.438L776.688 88.125C775.771 85.75 775.292 83.3333 775.25 80.875H774.438C774.354 83.625 773.938 86.0417 773.188 88.125L766 108.375C765.125 110.792 763.729 112.667 761.812 114L762.625 115.25C764.583 113.875 766.833 113.188 769.375 113.188ZM809.938 160.688C809.938 157.812 810.479 154.208 811.562 149.875C812.771 154.875 813.375 158.125 813.375 159.625C813.375 161.833 812.792 162.938 811.625 162.938C810.5 162.938 809.938 162.188 809.938 160.688ZM880.125 158.25L880.75 151.938V140.25C869.542 139.667 861.167 138.146 855.625 135.688C850.083 133.188 846 130.062 843.375 126.312C841.792 124.104 840.562 121.646 839.688 118.938C838.854 116.188 837.458 114.125 835.5 112.75L836.438 111.438C838.312 112.688 840.333 113.312 842.5 113.312C844.708 113.312 847.521 113.229 850.938 113.062C854.354 112.896 858.208 112.708 862.5 112.5C866.792 112.25 869.854 112.083 871.688 112C873.521 111.917 874.875 111.667 875.75 111.25C876.625 110.792 877.25 109.979 877.625 108.812L880.438 109.75C880.312 110.083 880.25 110.521 880.25 111.062C880.25 112.438 881.396 114 883.688 115.75C885.979 117.5 890.125 118.375 896.125 118.375C900.167 118.375 903.042 117.688 904.75 116.312C905.5 115.688 905.875 114.938 905.875 114.062C905.875 112.021 904.75 110.667 902.5 110C900.25 109.333 897.521 108.771 894.312 108.312C891.146 107.812 887.958 107.417 884.75 107.125C881.583 106.833 878.146 106.417 874.438 105.875C870.729 105.333 867.229 104.75 863.938 104.125C860.646 103.458 857.438 102.5 854.312 101.25C851.229 100 848.583 98.5417 846.375 96.875C844.167 95.1667 842.375 93 841 90.375C839.667 87.7083 839 84.6875 839 81.3125C839 77.9375 839.521 74.8542 840.562 72.0625C841.646 69.2708 843.104 66.875 844.938 64.875C846.771 62.875 848.979 61.1042 851.562 59.5625C854.188 58.0208 856.917 56.7708 859.75 55.8125C862.625 54.8542 865.75 54.0833 869.125 53.5C875 52.4167 880.542 51.875 885.75 51.875C890.958 51.875 894.917 51.9583 897.625 52.125C900.375 52.25 903.583 52.5208 907.25 52.9375C910.958 53.3125 914.292 53.9583 917.25 54.875C920.25 55.75 923.208 56.875 926.125 58.25C932.208 61.0833 936.479 65.4792 938.938 71.4375C939.938 73.5625 941.312 75.5417 943.062 77.375L942.25 78.8125C940.5 77.6042 938.479 77 936.188 77H935.375C932.042 77.125 927.271 77.375 921.062 77.75C914.896 78.0833 910.917 78.2917 909.125 78.375C907.375 78.4583 906.104 78.7083 905.312 79.125C904.562 79.5417 904.021 80.3333 903.688 81.5L900.938 80.75C901.062 80.375 901.125 79.9792 901.125 79.5625C901.125 77.8125 899.708 76.3125 896.875 75.0625C894.042 73.7708 890.833 73.125 887.25 73.125C880.25 73.125 876.75 74.5 876.75 77.25C876.75 79.7083 882 81.5 892.5 82.625C894.958 82.9167 897.75 83.2083 900.875 83.5C911.75 84.625 920.083 86.1042 925.875 87.9375C938.042 91.7708 944.125 99.0833 944.125 109.875C944.125 114.292 943.208 118.271 941.375 121.812C939.542 125.312 937.146 128.167 934.188 130.375C931.271 132.583 927.812 134.417 923.812 135.875C916.604 138.5 908.375 139.812 899.125 139.812C896.625 139.812 895.146 139.792 894.688 139.75C892.438 139.75 891.312 141.479 891.312 144.938V146.438C891.312 147.562 891.583 149.208 892.125 151.375C892.708 153.583 893 155.229 893 156.312C893 158.521 892.229 159.625 890.688 159.625C889.896 159.625 889.271 159.292 888.812 158.625C888.396 157.958 888.188 157.125 888.188 156.125C888.188 155.125 888.438 153.417 888.938 151C889.479 148.625 889.75 146.896 889.75 145.812C889.75 144.729 889.729 143.958 889.688 143.5C889.688 143.083 889.625 142.542 889.5 141.875C889.417 141.25 889.25 140.792 889 140.5C888.417 139.75 887.417 139.375 886 139.375C883.417 139.375 882.125 141.625 882.125 146.125L882.5 156.375C882.5 159.125 882.104 160.5 881.312 160.5C880.521 160.5 880.125 159.75 880.125 158.25ZM1029.06 79.125L1030.06 64.875C1030.06 60.625 1029.08 57.5208 1027.12 55.5625L1028.38 54.25C1030.08 55.9167 1032.17 56.75 1034.62 56.75H1056.69C1059.19 56.75 1061.27 55.9167 1062.94 54.25L1064.19 55.5625C1062.56 57.1875 1061.75 59.2708 1061.75 61.8125V134.938C1061.75 137.438 1062.56 139.521 1064.19 141.188L1062.94 142.438C1061.31 140.812 1059.23 140 1056.69 140H1034.62C1032.08 140 1030 140.812 1028.38 142.438L1027.12 141.188C1028.71 139.604 1029.5 137.521 1029.5 134.938L1029.38 113.938C1029.38 111.438 1030.17 109.375 1031.75 107.75L1030.5 106.5C1028.92 108.083 1026.83 108.875 1024.25 108.875H998.625C996.083 108.875 994 108.083 992.375 106.5L991.125 107.75C991.208 108.708 991.25 113.75 991.25 122.875V151.062C991.25 154.854 991.729 160.229 992.688 167.188C993.646 174.146 994.125 179.062 994.125 181.938C994.125 184.812 993.771 186.771 993.062 187.812C992.396 188.854 991.583 189.375 990.625 189.375C989.667 189.375 988.833 188.854 988.125 187.812C987.458 186.812 987.125 185.771 987.125 184.688C987.125 183.646 987.333 181.208 987.75 177.375C989 165.792 989.625 157.083 989.625 151.25C989.625 148.375 988.75 145.875 987 143.75C983.583 139.625 978.896 137.562 972.938 137.562C969.896 137.562 967.333 138.271 965.25 139.688C963.208 141.104 962.188 143.062 962.188 145.562C962.188 148.104 962.583 151.812 963.375 156.688C964.208 161.562 964.625 164.938 964.625 166.812C964.625 170.688 963.417 172.625 961 172.625C959.875 172.625 958.917 172.188 958.125 171.312C957.333 170.479 956.938 169.083 956.938 167.125C956.938 165.208 957.604 161.75 958.938 156.75C960.312 151.75 961 147.854 961 145.062V61.8125C961 59.1875 960.208 57.1042 958.625 55.5625L959.812 54.25C961.521 55.9167 963.604 56.75 966.062 56.75H988.5C990.958 56.75 993.021 55.9167 994.688 54.25L996 55.5625C994.083 57.4792 993.125 60.6042 993.125 64.9375L994.062 79.3125C994.062 83.6042 993.083 86.7292 991.125 88.6875L992.375 90C994 88.375 996.083 87.5625 998.625 87.5625H1024.5C1027.04 87.5625 1029.1 88.375 1030.69 90L1032 88.6875C1030.04 86.6875 1029.06 83.5 1029.06 79.125ZM1112.88 173.688L1113.56 157.062C1113.56 151.688 1113.35 148.292 1112.94 146.875C1112.56 145.458 1112.17 144.208 1111.75 143.125C1111.33 142.042 1110.79 141.167 1110.12 140.5C1109.46 139.833 1108.67 139.208 1107.75 138.625C1106 137.458 1103.25 136.875 1099.5 136.875C1095.75 136.875 1092.58 138.396 1090 141.438C1087.46 144.479 1086.19 148.125 1086.19 152.375C1086.19 153.958 1086.5 156.312 1087.12 159.438C1087.75 162.604 1088.06 164.979 1088.06 166.562C1088.06 169.562 1087 171.062 1084.88 171.062C1082.75 171.062 1081.69 169.604 1081.69 166.688C1081.69 165.062 1082 162.625 1082.62 159.375C1083.29 156.125 1083.62 153.667 1083.62 152L1084.06 135.25V61.8125C1084.06 59.2292 1083.25 57.1458 1081.62 55.5625L1082.88 54.25C1084.62 55.9167 1086.71 56.75 1089.12 56.75H1111.75C1114.25 56.75 1116.33 55.9167 1118 54.25L1119.25 55.5625C1117.62 57.1875 1116.81 59.2708 1116.81 61.8125V134.938C1116.81 137.104 1116.58 140.833 1116.12 146.125C1115.67 151.458 1115.52 155.562 1115.69 158.438H1115.62C1117.17 165.354 1117.94 170.625 1117.94 174.25C1117.94 177.875 1117.25 179.688 1115.88 179.688C1113.88 179.688 1112.88 177.688 1112.88 173.688ZM1191.31 150.125L1191.75 144.125C1191.75 143.083 1191.25 142.271 1190.25 141.688C1189.25 141.146 1188.17 140.875 1187 140.875C1185.83 140.875 1184.79 141.188 1183.88 141.812C1182.96 142.438 1182.5 143.333 1182.5 144.5V158.875C1182.5 160.958 1182.94 164.021 1183.81 168.062C1184.69 172.104 1185.12 174.979 1185.12 176.688C1185.12 178.438 1184.75 179.875 1184 181C1183.25 182.125 1182.21 182.688 1180.88 182.688C1179.58 182.688 1178.6 182.104 1177.94 180.938C1177.27 179.771 1176.94 178.25 1176.94 176.375C1176.94 174.5 1177.42 171.25 1178.38 166.625C1179.33 162 1179.81 158.417 1179.81 155.875C1179.81 145.583 1177.9 140.438 1174.06 140.438C1168.9 140.438 1166.31 140.229 1166.31 139.812V139.938C1166.31 142.812 1166.94 147.021 1168.19 152.562C1169.48 158.146 1170.12 162.146 1170.12 164.562C1170.12 166.979 1169.69 168.958 1168.81 170.5C1167.94 172.083 1166.58 172.875 1164.75 172.875C1162.96 172.875 1161.54 172.125 1160.5 170.625C1159.5 169.125 1159 167.167 1159 164.75C1159 162.375 1159.6 158.271 1160.81 152.438C1162.02 146.646 1162.62 142.25 1162.62 139.25C1152.75 136.125 1145.31 131.021 1140.31 123.938C1135.35 116.854 1132.88 108.104 1132.88 97.6875C1132.88 76.1042 1143.75 62.4792 1165.5 56.8125C1172.54 54.9792 1179.81 54.0625 1187.31 54.0625C1194.85 54.0625 1201.25 54.4792 1206.5 55.3125C1211.79 56.1458 1216.9 57.625 1221.81 59.75C1226.77 61.8333 1230.98 64.5 1234.44 67.75C1237.94 70.9583 1240.73 75.125 1242.81 80.25C1244.9 85.3333 1245.94 91.1458 1245.94 97.6875C1245.94 111.021 1242.19 121.354 1234.69 128.688C1227.19 135.979 1216.65 140.458 1203.06 142.125C1202.9 142.417 1202.81 142.875 1202.81 143.5L1203.12 146.938C1203.12 149.062 1202.54 150.125 1201.38 150.125C1200.21 150.125 1199.62 149.104 1199.62 147.062L1199.81 143.562C1199.81 142.312 1198.92 141.688 1197.12 141.688C1196.96 142.062 1196.88 142.771 1196.88 143.812L1197.19 149.875C1197.19 151.125 1196.96 152.333 1196.5 153.5C1196.04 154.667 1195.27 155.25 1194.19 155.25C1192.27 155.25 1191.31 153.542 1191.31 150.125ZM1167.69 97.75C1167.69 113 1174.94 120.625 1189.44 120.625C1203.94 120.625 1211.19 113 1211.19 97.75C1211.19 90.75 1209.31 85.3958 1205.56 81.6875C1201.81 77.9792 1196.44 76.125 1189.44 76.125C1182.44 76.125 1177.06 77.9792 1173.31 81.6875C1169.56 85.3958 1167.69 90.75 1167.69 97.75ZM1285.81 159.375L1287.31 142.438C1287.31 141.104 1286.56 140 1285.06 139.125C1282.6 137.75 1279.6 137.062 1276.06 137.062C1271.31 137.062 1268.04 138 1266.25 139.875C1265.46 140.708 1265.06 141.917 1265.06 143.5C1265.06 145.125 1265.54 147.938 1266.5 151.938C1267.46 155.938 1267.94 158.75 1267.94 160.375C1267.94 162.042 1267.62 163.354 1267 164.312C1266.42 165.312 1265.54 165.812 1264.38 165.812C1263.21 165.812 1262.31 165.312 1261.69 164.312C1261.06 163.354 1260.75 162.042 1260.75 160.375C1260.75 158.708 1261.25 155.833 1262.25 151.75C1263.29 147.667 1263.81 144.583 1263.81 142.5L1263.75 65.875C1263.75 60.9583 1262.25 56.8542 1259.25 53.5625L1260.56 52.25C1263.94 55.25 1268.04 56.75 1272.88 56.75H1291.56C1294.23 56.75 1296.48 56.4375 1298.31 55.8125C1300.19 55.1458 1301.69 53.8542 1302.81 51.9375L1304.88 52.9375C1303.79 55.5208 1303.25 57.9583 1303.25 60.25C1303.25 62.125 1306.54 66.8333 1313.12 74.375C1321.71 84.2083 1327.23 90.8125 1329.69 94.1875C1332.15 97.5625 1333.75 100.292 1334.5 102.375H1338.25C1336.21 99.375 1335.19 95.1458 1335.19 89.6875C1335.19 87.1458 1335.5 83.3542 1336.12 78.3125C1336.75 73.2292 1337.06 69.4167 1337.06 66.875C1337.06 60.0417 1334.9 55.6042 1330.56 53.5625L1331.88 52.25C1335.25 55.25 1339.35 56.75 1344.19 56.75H1357C1361.83 56.75 1365.94 55.25 1369.31 52.25L1370.56 53.5625C1367.6 56.8958 1366.12 61 1366.12 65.875L1366 142.188C1366 143.979 1366.42 146.646 1367.25 150.188C1368.08 153.771 1368.5 156.458 1368.5 158.25C1368.5 160.917 1367.48 162.25 1365.44 162.25C1363.4 162.25 1362.38 160.917 1362.38 158.25C1362.38 156.5 1362.77 153.917 1363.56 150.5C1364.35 147.125 1364.75 144.792 1364.75 143.5C1364.75 142.25 1364.33 141.354 1363.5 140.812C1362.67 140.271 1361.85 140 1361.06 140H1336.38C1332.88 140 1331.12 143.188 1331.12 149.562C1331.12 152.188 1331.6 155.979 1332.56 160.938C1333.56 165.938 1334.06 169.708 1334.06 172.25C1334.06 175.875 1332.71 177.688 1330 177.688C1327.29 177.688 1325.94 175.854 1325.94 172.188C1325.94 169.854 1326.46 166.458 1327.5 162C1328.58 157.542 1329.15 154.188 1329.19 151.938L1329.31 143.625C1329.44 139.75 1329.04 137.229 1328.12 136.062L1298.19 98.125C1297.4 97.0833 1296.52 94.9167 1295.56 91.625L1291.75 91.75C1293.92 94 1295 96.5 1295 99.25V134.938L1296.19 166.562C1296.19 167.229 1295.98 167.792 1295.56 168.25C1295.19 168.75 1294.65 169 1293.94 169C1293.27 169 1292.71 168.708 1292.25 168.125C1291.79 167.583 1291.56 166.958 1291.56 166.25L1292.31 142.25C1292.31 141.75 1292.12 141.292 1291.75 140.875C1291.38 140.458 1290.94 140.25 1290.44 140.25C1289.35 140.25 1288.81 141.083 1288.81 142.75C1288.81 144.417 1289.08 147.146 1289.62 150.938C1290.21 154.729 1290.5 157.333 1290.5 158.75C1290.5 161.917 1289.71 163.5 1288.12 163.5C1286.58 163.5 1285.81 162.125 1285.81 159.375Z" fill="black"/>
<path d="M1440.43 125.574V103.528L1451.03 86.6436H1466.75L1440.43 125.574ZM1423 132V86.6436H1438.11V132H1423ZM1451.13 132L1446 121.438L1454.96 108.006L1467.47 132H1451.13ZM1472.01 132V86.6436H1487.12V104.622H1501.58V113.372H1487.12V132H1472.01ZM1498.91 99.7686V95.4277H1489.51V86.6436H1513.13V99.7686H1498.91ZM1489.51 132V122.942H1498.02V118.396H1513.13V132H1489.51Z" fill="black"/>
</svg>
