<?xml version="1.0" encoding="utf-8"?>
<!-- Generator: Adobe Illustrator 23.0.1, SVG Export Plug-In . SVG Version: 6.00 Build 0)  -->
<svg version="1.1" id="Layer_1" xmlns="http://www.w3.org/2000/svg" xmlns:xlink="http://www.w3.org/1999/xlink" x="0px" y="0px"
	 viewBox="0 0 1000 1000" style="enable-background:new 0 0 1000 1000;" xml:space="preserve">
<style type="text/css">
	.st0{fill-rule:evenodd;clip-rule:evenodd;fill:#FFFFFF;}
	.st1{fill-rule:evenodd;clip-rule:evenodd;fill:#CCE86E;}
	.st2{fill-rule:evenodd;clip-rule:evenodd;fill:#80CC28;}
	.st3{fill-rule:evenodd;clip-rule:evenodd;fill:#7F1D1E;}
	.st4{fill:none;stroke:#CD7F4B;stroke-width:17.1568;stroke-miterlimit:2.6131;}
	.st5{fill-rule:evenodd;clip-rule:evenodd;fill:#EC1D27;}
	.st6{fill:none;stroke:#CD7F4B;stroke-width:15.319;stroke-miterlimit:2.6131;}
</style>
<g id="g10" transform="matrix(1.3333333,0,0,-1.3333333,0,2699.3467)">
	<g id="g12" transform="scale(0.1)">
		<g id="g14" transform="scale(1.00829)">
			<path id="path16" class="st0" d="M2162.1,17488.9h554.7c176.4,0,320.8-144.3,320.8-320.8v-922.2c0-176.4-144.4-320.8-320.8-320.8
				h-554.7c-176.4,0-320.8,144.4-320.8,320.8v922.2C1841.3,17344.5,1985.6,17488.9,2162.1,17488.9L2162.1,17488.9"/>
		</g>
		<g id="g18" transform="scale(1.24202)">
			<path id="path20" class="st1" d="M1755.2,14197.7h450.3c143.2,0,260.4-117.2,260.4-260.4v-748.7c0-143.2-117.2-260.4-260.4-260.4
				h-450.3c-143.2,0-260.4,117.2-260.4,260.4v748.7C1494.8,14080.5,1612,14197.7,1755.2,14197.7z M2368.2,11810.7h-775.8
				c-113.4,0-206.2,92.8-206.2,206.2v2273.1c0,113.4,92.8,206.2,206.2,206.2h775.8c9.2,0,18.2-0.6,27.1-1.8v167.3
				c0,49.2,40.3,89.5,89.5,89.5l0,0c49.2,0,89.5-40.3,89.5-89.5v-282.1c0-12.5-2.6-24.4-7.3-35.3c4.8-17.3,7.3-35.5,7.3-54.2
				v-2273.1C2574.4,11903.5,2481.6,11810.7,2368.2,11810.7L2368.2,11810.7"/>
		</g>
		<g id="g22" transform="scale(1.44826)">
			<path id="path24" class="st2" d="M2592.2,12029.1c104.8,15,185.3-14.1,190.7-179.1c-3.5-147.3-81.8-184.6-190.7-176.8V12029.1z
				 M2364.1,12135l424.6,1.6c154.8-19.7,226.3-135.5,219.8-304.1c-11.8-169.9-108.1-252.9-268.9-267.5l-154.1,3.1l4.3-466h-225.7
				L2364.1,12135L2364.1,12135"/>
		</g>
		<g id="g26" transform="scale(1.78599)">
			<path id="path28" class="st2" d="M2759.4,9850.7l218,1l-1.6-93.6l-170.7,0.8c-98.5-18.3-76.5-123.4-81.2-199.3l229.7,4.3
				l0.8-114.8l-222.5,2.4l-1.1-278.1c8.7-72.1,46.7-108.3,110.7-112.5l122.3,1.3l37.3-0.8l-1.2-86.8l-38.2-1.5l-232.4,2.5
				c-80.1,2.7-144.7,42.4-174.5,165.9l-5.7,539.5C2552.3,9791.5,2625.3,9845.7,2759.4,9850.7L2759.4,9850.7"/>
		</g>
		<g id="g30" transform="scale(2.14255)">
			<path id="path32" class="st2" d="M2548.6,8014c-11.5,150.6,72.5,184.7,174.5,196.6c119.5,7.1,194.5-42.7,209.1-169.9l-141,0.4
				c-8.9,64.1-58.8,88.8-104.4,58.2c-65.1-79.6,138-219.7,198.8-271.6c105.2-83.2,87.4-313.9-74.7-356.6l-98.8-3.5
				c-100.4-2.4-160.1,61-177.4,178.6l142.1,2.5c7.7-50.2,29.2-81.4,74.6-79.2c70.8,13.4,90.2,75.7,39.9,155.2
				C2686,7814.1,2561.3,7898.1,2548.6,8014L2548.6,8014"/>
		</g>
		<g id="g34" transform="scale(1.02577)">
			<path id="path36" class="st2" d="M105.4,17198.8h312l3.3-96.9c188.5,81.5,330.7,139,479.6,4.9
				c266.3,125.7,467.6,111.4,567.4-121.9l13.9-1310.1H1167v1249.6c-23.3,107-108,125.3-210.2,118.2v-1367.8H634.9v1249.6
				c-23.3,107-108,125.3-210.2,118.2v-1367.8H105.4V17198.8L105.4,17198.8"/>
		</g>
		<g id="g38" transform="scale(2.47715)">
			<path id="path40" class="st2" d="M2742.6,6985c4.4,35.6,16,49.9,55.1,53.7c39.7-1,53.8-23.9,56.4-59.2V6883h-111.5V6985z
				 M2608.7,6475h134v333.2h111.5V6475H2984v476c-2.6,96.7-77,157.4-182.3,157.8c-120.1,1.1-188.6-55.9-193.1-152.3L2608.7,6475
				L2608.7,6475"/>
		</g>
		<path id="path42" class="st3" d="M2114.3,17004.7c55.3-129.4,130.6-188.9,221.9-192.6c-142.3-106.3-296.3-170.9-456.7-212.2
			c-100.8,6.5-197.2,32.1-290.7,57.7C1825.1,16704.4,2001.4,16818.8,2114.3,17004.7L2114.3,17004.7"/>
		<path id="path44" class="st4" d="M2114.3,17004.7c55.3-129.4,130.6-188.9,221.9-192.6c-142.3-106.3-296.3-170.9-456.7-212.2
			c-100.8,6.5-197.2,32.1-290.7,57.7C1825.1,16704.4,2001.4,16818.8,2114.3,17004.7L2114.3,17004.7z"/>
		<g id="g46" transform="scale(1.11997)">
			<path id="path48" class="st5" d="M2441.3,15481l595.6-300.8c-303.3-399.1-814.9-409.6-1359.7-358
				C2041.5,14911.9,2293.6,15134.5,2441.3,15481L2441.3,15481"/>
		</g>
		<g id="g50" transform="scale(1.11997)">
			<path id="path52" class="st6" d="M2441.3,15481l595.6-300.8c-303.3-399.1-814.9-409.6-1359.7-358
				C2041.5,14911.9,2293.6,15134.5,2441.3,15481z"/>
		</g>
	</g>
</g>
</svg>
